# xmcd
# Track frame offsets:
# 150
# 15347
# 27360
# 46900
# 60680
# 73405
# 88977
# 105070
# 113995
# 125066
# 144716
# 165232
# 176559
# 195068
# 209593
# 229996
# 243121
#
# Disc length: 3475 seconds
# Revision: 0
# Processed by: cddbd v1.5.2PL0 Copyright (c) Steve Scherf et al.
# Submitted via: VisiTrax 2.11.2.271 - For more info visit www.synapsa.com
#
DISCID=e50d9111
DTITLE=Kearney. Warren - Shades Of Midnight
DYEAR=2003
DGENRE=Country
TTITLE0=Stuck On You
TTITLE1=Pure Love
TTITLE2=When I Call Your Name
TTITLE3=Cold Cold Heart
TTITLE4=Lonely Wine
TTITLE5=Shades Of Midnight
TTITLE6=Sleeping With The Blues
TTITLE7=Blue Boy
TTITLE8=Turn Me On
TTITLE9=If It Wern't  For Him
TTITLE10=Moonglow
TTITLE11=That's When I See The Blues ( In Your Pretty Brown Eyes )
TTITLE12=Ain't It Funny How Time Slips Away
TTITLE13=I Can't Help Myself
TTITLE14=If You Ever Have Forever In Mind
TTITLE15=It Takes Two To Tango
TTITLE16=Let's Not Say Goodbye
EXTD=
EXTT0=
EXTT1=
EXTT2=
EXTT3=
EXTT4=
EXTT5=
EXTT6=
EXTT7=
EXTT8=
EXTT9=
EXTT10=
EXTT11=
EXTT12=
EXTT13=
EXTT14=
EXTT15=
EXTT16=
PLAYORDER=
